<svg width="18" height="16" viewBox="0 0 18 16" fill="none" xmlns="http://www.w3.org/2000/svg">
<path d="M9.682 9C10.229 9 10.7536 9.2173 11.1404 9.60409C11.5272 9.99089 11.7445 10.5155 11.7445 11.0625L11.7431 12.091C11.8847 14.6169 9.93913 15.8764 6.3325 15.8764C2.73825 15.875 0.75 14.6334 0.75 12.1281V11.0625C0.75 10.5155 0.967299 9.99089 1.35409 9.60409C1.74089 9.2173 2.26549 9 2.8125 9H9.682ZM15.182 9C15.729 9 16.2536 9.2173 16.6404 9.60409C17.0272 9.99089 17.2445 10.5155 17.2445 11.0625V11.7871C17.3682 14.0518 15.6495 15.1875 12.509 15.1875C12.0828 15.1875 11.6813 15.1669 11.3073 15.1256C11.706 14.7571 12.0044 14.3185 12.1941 13.8084L12.509 13.8125C14.962 13.8125 15.9424 13.1649 15.8695 11.8243V11.0625C15.8695 10.8802 15.7971 10.7053 15.6681 10.5764C15.5392 10.4474 15.3643 10.375 15.182 10.375H12.3454C12.2074 9.84239 11.9128 9.36342 11.4998 9H15.182ZM9.682 10.375H2.8125C2.63016 10.375 2.4553 10.4474 2.32636 10.5764C2.19743 10.7053 2.125 10.8802 2.125 11.0625V12.1281C2.125 13.7025 3.401 14.5 6.3325 14.5C9.253 14.5 10.4575 13.7204 10.3695 12.1281V11.0625C10.3695 10.8802 10.2971 10.7053 10.1681 10.5764C10.0392 10.4474 9.86434 10.375 9.682 10.375ZM6.25 0.75C7.16168 0.75 8.03602 1.11216 8.68068 1.75682C9.32534 2.40148 9.6875 3.27582 9.6875 4.1875C9.6875 5.09918 9.32534 5.97352 8.68068 6.61818C8.03602 7.26284 7.16168 7.625 6.25 7.625C5.33832 7.625 4.46398 7.26284 3.81932 6.61818C3.17466 5.97352 2.8125 5.09918 2.8125 4.1875C2.8125 3.27582 3.17466 2.40148 3.81932 1.75682C4.46398 1.11216 5.33832 0.75 6.25 0.75ZM13.125 2.125C13.8543 2.125 14.5538 2.41473 15.0695 2.93046C15.5853 3.44618 15.875 4.14565 15.875 4.875C15.875 5.60435 15.5853 6.30382 15.0695 6.81954C14.5538 7.33527 13.8543 7.625 13.125 7.625C12.3957 7.625 11.6962 7.33527 11.1805 6.81954C10.6647 6.30382 10.375 5.60435 10.375 4.875C10.375 4.14565 10.6647 3.44618 11.1805 2.93046C11.6962 2.41473 12.3957 2.125 13.125 2.125ZM6.25 2.125C5.70299 2.125 5.17839 2.3423 4.79159 2.72909C4.4048 3.11589 4.1875 3.64049 4.1875 4.1875C4.1875 4.73451 4.4048 5.25911 4.79159 5.64591C5.17839 6.0327 5.70299 6.25 6.25 6.25C6.79701 6.25 7.32161 6.0327 7.70841 5.64591C8.0952 5.25911 8.3125 4.73451 8.3125 4.1875C8.3125 3.64049 8.0952 3.11589 7.70841 2.72909C7.32161 2.3423 6.79701 2.125 6.25 2.125ZM13.125 3.5C12.7603 3.5 12.4106 3.64487 12.1527 3.90273C11.8949 4.16059 11.75 4.51033 11.75 4.875C11.75 5.23967 11.8949 5.58941 12.1527 5.84727C12.4106 6.10513 12.7603 6.25 13.125 6.25C13.4897 6.25 13.8394 6.10513 14.0973 5.84727C14.3551 5.58941 14.5 5.23967 14.5 4.875C14.5 4.51033 14.3551 4.16059 14.0973 3.90273C13.8394 3.64487 13.4897 3.5 13.125 3.5Z" fill="#A6AFBD"/>
</svg>
