<svg width="18" height="18" viewBox="0 0 18 18" fill="none" xmlns="http://www.w3.org/2000/svg">
<path d="M14.5811 15.0773C13.4013 16.1611 11.9314 16.8779 10.351 17.1403C8.77052 17.4026 7.14788 17.1991 5.68116 16.5546C4.21443 15.9101 2.96709 14.8525 2.09142 13.511C1.21575 12.1694 0.749641 10.6019 0.75 8.99979H2.125C2.1249 10.3845 2.54297 11.7371 3.32447 12.8802C4.10597 14.0234 5.21446 14.9039 6.5048 15.4065C7.79514 15.9091 9.20717 16.0103 10.556 15.6969C11.9048 15.3835 13.1276 14.6701 14.0641 13.65H12.0662C11.8839 13.65 11.709 13.5776 11.5801 13.4487C11.4512 13.3197 11.3787 13.1449 11.3787 12.9625C11.3787 12.7802 11.4512 12.6053 11.5801 12.4764C11.709 12.3475 11.8839 12.275 12.0662 12.275H15.2686C15.451 12.275 15.6258 12.3475 15.7548 12.4764C15.8837 12.6053 15.9561 12.7802 15.9561 12.9625V16.1622C15.9561 16.3445 15.8837 16.5194 15.7548 16.6483C15.6258 16.7772 15.451 16.8497 15.2686 16.8497C15.0863 16.8497 14.9114 16.7772 14.7825 16.6483C14.6536 16.5194 14.5811 16.3445 14.5811 16.1622V15.0759V15.0773ZM3.93588 4.35091H5.93375C6.11609 4.35091 6.29095 4.42335 6.41989 4.55228C6.54882 4.68121 6.62125 4.85608 6.62125 5.03841C6.62125 5.22075 6.54882 5.39562 6.41989 5.52455C6.29095 5.65348 6.11609 5.72591 5.93375 5.72591H2.73C2.54766 5.72591 2.3728 5.65348 2.24386 5.52455C2.11493 5.39562 2.0425 5.22075 2.0425 5.03841V1.83604C2.0425 1.6537 2.11493 1.47883 2.24386 1.3499C2.3728 1.22097 2.54766 1.14854 2.73 1.14854C2.91234 1.14854 3.0872 1.22097 3.21614 1.3499C3.34507 1.47883 3.4175 1.6537 3.4175 1.83604V2.92229C4.59719 1.83714 6.06744 1.11914 7.64857 0.856044C9.2297 0.592943 10.8532 0.796133 12.3208 1.44078C13.7883 2.08543 15.0362 3.14362 15.9121 4.48603C16.788 5.82843 17.2538 7.39691 17.2528 8.99979H15.8777C15.8779 7.61484 15.4597 6.26215 14.678 5.11888C13.8964 3.97562 12.7876 3.09508 11.4971 2.59261C10.2065 2.09014 8.79424 1.98917 7.4453 2.30291C6.09636 2.61665 4.87363 3.33049 3.93725 4.35091H3.93588Z" fill="#00CED4"/>
</svg>
