<svg width="18" height="18" viewBox="0 0 18 18" fill="none" xmlns="http://www.w3.org/2000/svg">
<path d="M17.0506 0.949247C16.9578 0.856897 16.8406 0.792958 16.7127 0.764947C16.5848 0.736935 16.4516 0.746016 16.3287 0.791122L1.20369 6.29112C1.07325 6.3406 0.960947 6.42859 0.8817 6.5434C0.802452 6.65822 0.76001 6.79443 0.76001 6.93393C0.76001 7.07344 0.802452 7.20965 0.8817 7.32447C0.960947 7.43928 1.07325 7.52727 1.20369 7.57675L7.80369 10.2167L10.4437 16.8167C10.4933 16.9415 10.5783 17.0489 10.6883 17.1259C10.7982 17.2029 10.9283 17.246 11.0624 17.2499C11.2014 17.247 11.3362 17.2021 11.4491 17.1211C11.562 17.0401 11.6477 16.9268 11.6949 16.7961L17.1949 1.67112C17.2418 1.54949 17.2531 1.41704 17.2275 1.28923C17.202 1.16142 17.1406 1.04351 17.0506 0.949247ZM11.0624 14.6374L9.14431 9.82487L12.4374 6.53175L11.4681 5.56237L8.14744 8.883L3.36244 6.93737L15.4143 2.5855L11.0624 14.6374Z" fill="#00CED4"/>
</svg>
