<svg width="17" height="15" viewBox="0 0 17 15" fill="none" xmlns="http://www.w3.org/2000/svg">
<path d="M15.8889 5.91688H15.3611V2.75022C15.3611 2.61024 15.3055 2.476 15.2065 2.37702C15.1076 2.27804 14.9733 2.22244 14.8333 2.22244H2.16668C2.04171 2.22448 1.92007 2.1821 1.82342 2.10285C1.72677 2.02359 1.66138 1.91261 1.6389 1.78966V1.59966C1.66138 1.47671 1.72677 1.36573 1.82342 1.28648C1.92007 1.20723 2.04171 1.16485 2.16668 1.16688H14.6117C14.7517 1.16688 14.8859 1.11128 14.9849 1.0123C15.0839 0.913324 15.1395 0.779081 15.1395 0.639106C15.1395 0.499131 15.0839 0.364888 14.9849 0.265911C14.8859 0.166933 14.7517 0.111328 14.6117 0.111328H2.16668C1.74675 0.111328 1.34403 0.278143 1.04709 0.575076C0.75016 0.872008 0.583345 1.27474 0.583345 1.69466C0.57964 1.75794 0.57964 1.82138 0.583345 1.88466V12.7411C0.585416 13.0252 0.643441 13.3062 0.754105 13.5679C0.864769 13.8297 1.0259 14.0671 1.22831 14.2665C1.43072 14.466 1.67043 14.6236 1.93377 14.7305C2.1971 14.8373 2.4789 14.8912 2.76307 14.8891H14.8333C14.9733 14.8891 15.1076 14.8335 15.2065 14.7345C15.3055 14.6355 15.3611 14.5013 15.3611 14.3613V11.1947H15.8889C16.0289 11.1947 16.1631 11.1391 16.2621 11.0401C16.3611 10.9411 16.4167 10.8069 16.4167 10.6669V6.44466C16.4167 6.30469 16.3611 6.17044 16.2621 6.07147C16.1631 5.97249 16.0289 5.91688 15.8889 5.91688ZM14.3056 13.8336H2.76307C2.46952 13.8364 2.18672 13.7232 1.9762 13.5186C1.76567 13.314 1.64445 13.0346 1.6389 12.7411V3.21466C1.81022 3.26431 1.98848 3.2857 2.16668 3.27799H14.3056V5.91688H10.6111C9.91125 5.91688 9.24003 6.19491 8.74515 6.6898C8.25026 7.18468 7.97223 7.8559 7.97223 8.55577C7.97223 9.25565 8.25026 9.92686 8.74515 10.4217C9.24003 10.9166 9.91125 11.1947 10.6111 11.1947H14.3056V13.8336ZM15.3611 10.1391H10.6111C10.1912 10.1391 9.78847 9.97229 9.49154 9.67536C9.1946 9.37843 9.02779 8.9757 9.02779 8.55577C9.02779 8.13585 9.1946 7.73312 9.49154 7.43619C9.78847 7.13925 10.1912 6.97244 10.6111 6.97244H15.3611V10.1391Z" fill="#A6AFBD"/>
</svg>
